<svg id="Capa_1" data-name="Capa 1" xmlns="http://www.w3.org/2000/svg" viewBox="0 0 2673 1204"><defs><style>.cls-1,.cls-2{fill:#624e73;}.cls-2{fill-rule:evenodd;}</style></defs><title>Sin título-1</title><path class="cls-1" d="M378.3,186a84,84,0,1,1,84-84A84.1,84.1,0,0,1,378.3,186Zm0-162a78,78,0,1,0,78,78A78.09,78.09,0,0,0,378.3,24Z"/><path class="cls-1" d="M398.3,856a84,84,0,1,1,84-84A84.1,84.1,0,0,1,398.3,856Zm0-162a78,78,0,1,0,78,78A78.09,78.09,0,0,0,398.3,694Z"/><path class="cls-1" d="M2335.3,1133.1a84,84,0,1,1,84-84A84.1,84.1,0,0,1,2335.3,1133.1Zm0-162a78,78,0,1,0,78,78A78.09,78.09,0,0,0,2335.3,971.1Z"/><path class="cls-1" d="M477.3,106c48-1.9,98.87,7.63,143.23,25.53,40.36,16.29,73,41.89,99.84,76.05C747.79,242.53,769,282.33,785,323.69c7.78,20.12,15,40.94,19.38,62.11.79,3.78,6.57,2.18,5.79-1.6-12.37-59.29-40.28-118.53-75.46-167.41C709,181,678.2,151.74,638.09,132.72c-32.07-15.21-66.83-24.25-101.92-29-19.38-2.63-39.28-4.48-58.87-3.71-3.85.15-3.87,6.15,0,6Z"/><path class="cls-1" d="M342.3,422h-8v-8c0-3.86-6-3.87-6,0v8h-8c-3.86,0-3.87,6,0,6h8v8c0,3.86,6,3.87,6,0v-8h8C346.16,428,346.17,422,342.3,422Z"/><path class="cls-1" d="M178.3,902h-8v-8c0-3.86-6-3.87-6,0v8h-8c-3.86,0-3.87,6,0,6h8v8c0,3.86,6,3.87,6,0v-8h8C182.16,908,182.17,902,178.3,902Z"/><path class="cls-1" d="M882.3,202h-8v-8c0-3.86-6-3.87-6,0v8h-8c-3.86,0-3.87,6,0,6h8v8c0,3.86,6,3.87,6,0v-8h8C886.16,208,886.17,202,882.3,202Z"/><path class="cls-1" d="M1886.3,294h-8v-8c0-3.86-6-3.87-6,0v8h-8c-3.86,0-3.87,6,0,6h8v8c0,3.86,6,3.87,6,0v-8h8C1890.16,300,1890.17,294,1886.3,294Z"/><path class="cls-1" d="M2188.3,486h-8v-8c0-3.86-6-3.87-6,0v8h-8c-3.86,0-3.87,6,0,6h8v8c0,3.86,6,3.87,6,0v-8h8C2192.16,492,2192.17,486,2188.3,486Z"/><path class="cls-1" d="M2518.3,562h-8v-8c0-3.86-6-3.87-6,0v8h-8c-3.86,0-3.87,6,0,6h8v8c0,3.86,6,3.87,6,0v-8h8C2522.16,568,2522.17,562,2518.3,562Z"/><path class="cls-1" d="M2264.3,888h-8v-8c0-3.86-6-3.87-6,0v8h-8c-3.86,0-3.87,6,0,6h8v8c0,3.86,6,3.87,6,0v-8h8C2268.16,894,2268.17,888,2264.3,888Z"/><path class="cls-1" d="M2588.3,1060h-8v-8c0-3.86-6-3.87-6,0v8h-8c-3.86,0-3.87,6,0,6h8v8c0,3.86,6,3.87,6,0v-8h8C2592.16,1066,2592.17,1060,2588.3,1060Z"/><path class="cls-1" d="M365.3,286h112c3.86,0,3.87-6,0-6h-112c-3.86,0-3.87,6,0,6Z"/><path class="cls-1" d="M422.3,300h112c3.86,0,3.87-6,0-6h-112c-3.86,0-3.87,6,0,6Z"/><circle class="cls-1" cx="494.3" cy="283" r="4"/><circle class="cls-1" cx="509.3" cy="283" r="4"/><circle class="cls-1" cx="524.3" cy="283" r="4"/><path class="cls-1" d="M2107.3,712h112c3.86,0,3.87-6,0-6h-112c-3.86,0-3.87,6,0,6Z"/><path class="cls-1" d="M2164.3,726h112c3.86,0,3.87-6,0-6h-112c-3.86,0-3.87,6,0,6Z"/><circle class="cls-1" cx="2236.3" cy="709" r="4"/><circle class="cls-1" cx="2251.3" cy="709" r="4"/><circle class="cls-1" cx="2266.3" cy="709" r="4"/><path class="cls-1" d="M292.3,674h-112c-3.86,0-3.87,6,0,6h112c3.86,0,3.87-6,0-6Z"/><path class="cls-1" d="M322.3,688h-112c-3.86,0-3.87,6,0,6h112c3.86,0,3.87-6,0-6Z"/><path class="cls-1" d="M328.3,702.38h-74c-3.86,0-3.87,6,0,6h74c3.86,0,3.87-6,0-6Z"/><circle class="cls-1" cx="163.3" cy="677" r="4"/><circle class="cls-1" cx="148.3" cy="677" r="4"/><circle class="cls-1" cx="133.3" cy="677" r="4"/><path class="cls-1" d="M2142.3,262h-112c-3.86,0-3.87,6,0,6h112c3.86,0,3.87-6,0-6Z"/><path class="cls-1" d="M2172.3,276h-112c-3.86,0-3.87,6,0,6h112c3.86,0,3.87-6,0-6Z"/><path class="cls-1" d="M2178.3,290.38h-74c-3.86,0-3.87,6,0,6h74c3.86,0,3.87-6,0-6Z"/><circle class="cls-1" cx="2013.3" cy="265" r="4"/><circle class="cls-1" cx="1998.3" cy="265" r="4"/><circle class="cls-1" cx="1983.3" cy="265" r="4"/><path class="cls-1" d="M627.3,296a11,11,0,1,1,11-11A11,11,0,0,1,627.3,296Zm0-16a5,5,0,1,0,5,5A5,5,0,0,0,627.3,280Z"/><path class="cls-1" d="M483.3,468a11,11,0,1,1,11-11A11,11,0,0,1,483.3,468Zm0-16a5,5,0,1,0,5,5A5,5,0,0,0,483.3,452Z"/><path class="cls-1" d="M2277.3,254a11,11,0,1,1,11-11A11,11,0,0,1,2277.3,254Zm0-16a5,5,0,1,0,5,5A5,5,0,0,0,2277.3,238Z"/><path class="cls-1" d="M2585.3,476a11,11,0,1,1,11-11A11,11,0,0,1,2585.3,476Zm0-16a5,5,0,1,0,5,5A5,5,0,0,0,2585.3,460Z"/><path class="cls-1" d="M2293.3,812a11,11,0,1,1,11-11A11,11,0,0,1,2293.3,812Zm0-16a5,5,0,1,0,5,5A5,5,0,0,0,2293.3,796Z"/><path class="cls-1" d="M2141.3,980a11,11,0,1,1,11-11A11,11,0,0,1,2141.3,980Zm0-16a5,5,0,1,0,5,5A5,5,0,0,0,2141.3,964Z"/><path class="cls-1" d="M2301.3,594a11,11,0,1,1,11-11A11,11,0,0,1,2301.3,594Zm0-16a5,5,0,1,0,5,5A5,5,0,0,0,2301.3,578Z"/><path class="cls-1" d="M2343.3,330a11,11,0,1,1,11-11A11,11,0,0,1,2343.3,330Zm0-16a5,5,0,1,0,5,5A5,5,0,0,0,2343.3,314Z"/><path class="cls-1" d="M2537.3,716a11,11,0,1,1,11-11A11,11,0,0,1,2537.3,716Zm0-16a5,5,0,1,0,5,5A5,5,0,0,0,2537.3,700Z"/><path class="cls-1" d="M285.3,1034a11,11,0,1,1,11-11A11,11,0,0,1,285.3,1034Zm0-16a5,5,0,1,0,5,5A5,5,0,0,0,285.3,1018Z"/><path class="cls-1" d="M389.3,1176a11,11,0,1,1,11-11A11,11,0,0,1,389.3,1176Zm0-16a5,5,0,1,0,5,5A5,5,0,0,0,389.3,1160Z"/><path class="cls-1" d="M95.3,576a11,11,0,1,1,11-11A11,11,0,0,1,95.3,576Zm0-16a5,5,0,1,0,5,5A5,5,0,0,0,95.3,560Z"/><path class="cls-1" d="M425.86,674.57l-5.11-3.15c.45-.73,45.59-73.7,80.43-108.55S620.45,488,624,486.29l2.56,5.43c-.87.41-86.93,41.18-121.16,75.41S426.31,673.85,425.86,674.57Z"/><path class="cls-1" d="M624.5,1143.89c-45.84-12.79-96.09-45.63-137.88-90.08-33.7-35.85-77.05-95.53-92.26-176.25l5.9-1.11c24.73,131.24,134.25,236.1,225.86,261.67Z"/><path class="cls-1" d="M198.51,527.46A3,3,0,0,1,196,526.1c-3.37-5.18-6.51-10.45-9.33-15.67a3,3,0,0,1,5.28-2.85c2.74,5.08,5.79,10.21,9.08,15.25a3,3,0,0,1-2.51,4.64Z"/><path class="cls-1" d="M483.81,674.55c-7.85,0-15.84-.29-23.73-.86a3,3,0,1,1,.43-6,324.1,324.1,0,0,0,34.08.66,3,3,0,1,1,.21,6C491.17,674.48,487.47,674.55,483.81,674.55Zm45.14-3.22a3,3,0,0,1-.42-6,305.32,305.32,0,0,0,33.39-6.75,3,3,0,1,1,1.52,5.8,311.17,311.17,0,0,1-34,6.88A3,3,0,0,1,528.95,671.32Zm-102.8-1.84a3,3,0,0,1-.52,0c-11.28-2-22.66-4.54-33.84-7.64a3,3,0,1,1,1.6-5.78c11,3,22.19,5.57,33.27,7.51a3,3,0,0,1-.51,6ZM595.42,654a3,3,0,0,1-1.08-5.8,311.08,311.08,0,0,0,31.07-14,3,3,0,1,1,2.76,5.33,317.11,317.11,0,0,1-31.67,14.27A3,3,0,0,1,595.42,654ZM359.9,651.17a3,3,0,0,1-1.07-.2c-10.74-4.09-21.45-8.74-31.81-13.83a3,3,0,1,1,2.64-5.39c10.2,5,20.73,9.58,31.3,13.6a3,3,0,0,1-1.07,5.8ZM298.17,620.9a3,3,0,0,1-1.56-.44c-9.92-6.05-19.58-12.6-28.74-19.46a3,3,0,0,1,3.6-4.8c9,6.75,18.51,13.18,28.26,19.14a3,3,0,0,1-1.57,5.56Zm-55-41.29a3,3,0,0,1-2-.79A306.6,306.6,0,0,1,217,553.87a3,3,0,0,1,4.54-3.92,300.35,300.35,0,0,0,23.72,24.45,3,3,0,0,1-2,5.21Z"/><path class="cls-1" d="M656.56,622.32a3,3,0,0,1-1.66-5.5c4.91-3.25,9.83-6.69,14.62-10.23a3,3,0,0,1,3.57,4.82c-4.87,3.6-9.88,7.1-14.88,10.41A3,3,0,0,1,656.56,622.32Z"/><path class="cls-1" d="M2538.71,882.15a3,3,0,0,1-2.92-2.34c-1.28-5.63-2.85-11.39-4.66-17.12a3,3,0,0,1,5.72-1.81c1.86,5.89,3.47,11.81,4.79,17.6a3,3,0,0,1-2.26,3.59A3,3,0,0,1,2538.71,882.15Z"/><path class="cls-1" d="M2521.37,832.78a3,3,0,0,1-2.72-1.72,300.26,300.26,0,0,0-16.3-29.92,3,3,0,1,1,5.1-3.16,306.22,306.22,0,0,1,16.63,30.52,3,3,0,0,1-2.71,4.28Zm-36.08-58.5a3,3,0,0,1-2.38-1.17c-6.86-8.91-14.3-17.66-22.11-26a3,3,0,1,1,4.38-4.1c7.93,8.49,15.5,17.39,22.47,26.45a3,3,0,0,1-2.37,4.83ZM2438.36,724a3,3,0,0,1-2-.76c-8.49-7.55-17.41-14.79-26.52-21.5a3,3,0,0,1,3.56-4.83c9.26,6.83,18.33,14.18,27,21.85a3,3,0,0,1-2,5.24ZM2383,683.25a3,3,0,0,1-1.54-.43c-9.77-5.88-19.88-11.31-30-16.15a3,3,0,0,1,2.58-5.42c10.33,4.92,20.61,10.44,30.55,16.42a3,3,0,0,1-1.55,5.57Zm-62-29.49a3,3,0,0,1-1-.18,323.93,323.93,0,0,0-32.66-9.77,3,3,0,0,1,1.41-5.83,329.87,329.87,0,0,1,33.27,10,3,3,0,0,1-1,5.83Zm-169.48-12a3,3,0,0,1-.61-5.94,317.1,317.1,0,0,1,34.34-5.26,3,3,0,1,1,.58,6,310.67,310.67,0,0,0-33.68,5.16A3.06,3.06,0,0,1,2151.5,641.78Zm102.69-4.13-.39,0a305.55,305.55,0,0,0-34-2.45,3,3,0,0,1-3-3,3,3,0,0,1,3-3,311.68,311.68,0,0,1,34.63,2.49,3,3,0,0,1-.38,6Z"/><path class="cls-1" d="M2101.13,656.66a3,3,0,0,1-1.07-5.8c5.67-2.17,11.43-4.2,17.12-6a3,3,0,0,1,1.85,5.71c-5.59,1.81-11.25,3.8-16.83,5.94A3,3,0,0,1,2101.13,656.66Z"/><path class="cls-1" d="M2474.3,195c-.22,71.4-25.91,143.22-65.48,202.12-47.31,70.41-118.56,122.32-202.38,139-59.28,11.78-120.39,5.74-178.34-10-3.73-1-5.32,4.77-1.6,5.79,96.53,26.18,200.8,22.61,287-32.21,68.45-43.55,118.16-112.69,145.26-188.53C2472,274,2480.18,234.55,2480.3,195c0-3.86-6-3.87-6,0Z"/><circle class="cls-1" cx="2306.3" cy="1028.33" r="7.78"/><circle class="cls-1" cx="2337.64" cy="1043.89" r="11.44"/><circle class="cls-1" cx="2378.64" cy="1059.33" r="6.83"/><circle class="cls-1" cx="2307.97" cy="1079" r="7.36" transform="translate(1129.85 3337.98) rotate(-87.51)"/><path class="cls-1" d="M2295.56,1083.78a2,2,0,0,1-1.84-2.14h0a2,2,0,0,1,2.12-1.86h0a2,2,0,0,1,1.86,2.14h0a2,2,0,0,1-2,1.86h-.16Zm10-3.36a2,2,0,0,1,1.28-2.52h0a2,2,0,0,1,2.52,1.3h0a2,2,0,0,1-1.3,2.52h0a2.08,2.08,0,0,1-.6.08h0A2,2,0,0,1,2305.58,1080.42Zm11.22-4.24a2,2,0,0,1,1-2.66h0a2,2,0,0,1,2.68,1h0a2,2,0,0,1-1,2.66h0a1.87,1.87,0,0,1-.86.2h0A2,2,0,0,1,2316.8,1076.18Zm-27.78-.44a2,2,0,0,1-1.56-2.36h0a2,2,0,0,1,2.36-1.56h0a2,2,0,0,1,1.56,2.36h0a2,2,0,0,1-2,1.6h0A2.64,2.64,0,0,1,2289,1075.74Zm38.48-5a2,2,0,0,1,.72-2.74h0a2,2,0,0,1,2.74.74h0a2,2,0,0,1-.74,2.72h0a2,2,0,0,1-1,.28h0A2,2,0,0,1,2327.5,1070.74Zm10.24-6.26a2,2,0,0,1,.54-2.76h0a2,2,0,0,1,2.78.54h0a2,2,0,0,1-.54,2.78h0a2.15,2.15,0,0,1-1.12.34h0A2,2,0,0,1,2337.74,1064.48Zm-44.22.22a2,2,0,0,1-.5-2.78h0a2,2,0,0,1,2.78-.5h0a2,2,0,0,1,.5,2.78h0a2,2,0,0,1-1.66.86h0A2,2,0,0,1,2293.52,1064.7Zm54.06-7.08a2,2,0,0,1,.38-2.8v0a2,2,0,0,1,2.8.4h0a2,2,0,0,1-.38,2.8h0a2.12,2.12,0,0,1-1.22.4h0A2,2,0,0,1,2347.58,1057.62Zm-46.72-2.4a2,2,0,0,1-.12-2.84h0a2,2,0,0,1,2.82-.12h0a2,2,0,0,1,.12,2.82h0a1.93,1.93,0,0,1-1.48.66h0A2,2,0,0,1,2300.86,1055.22Zm56.12-5.06a2,2,0,0,1,.22-2.82h0a2,2,0,0,1,2.82.22h0a2,2,0,0,1-.22,2.82h0a2,2,0,0,1-1.3.48h0A2,2,0,0,1,2357,1050.16Zm-47.76-3.54a2,2,0,0,1,.12-2.84h0a2,2,0,0,1,2.82.12h0a2,2,0,0,1-.1,2.82h0a2,2,0,0,1-1.36.54h0A2,2,0,0,1,2309.22,1046.62Zm56.68-4.48a2,2,0,0,1,0-2.84h0a2,2,0,0,1,2.82,0h0a2,2,0,0,1,0,2.82h0a2,2,0,0,1-1.42.58h0A2.09,2.09,0,0,1,2365.9,1042.14Zm-47.68-3.46a2,2,0,0,1,.3-2.82h0a2,2,0,0,1,2.82.3h0a2,2,0,0,1-.3,2.82h0a2.09,2.09,0,0,1-1.26.44h0A2,2,0,0,1,2318.22,1038.68Zm55.94-5.26a2,2,0,0,1-.28-2.82h0a2,2,0,0,1,2.82-.28h0a2,2,0,0,1,.26,2.82h0a2,2,0,0,1-1.56.74h0A2,2,0,0,1,2374.16,1033.42Zm-46.46-2.1a2,2,0,0,1,.48-2.8h0a2,2,0,0,1,2.78.46h0a2,2,0,0,1-.46,2.8h0a2,2,0,0,1-1.16.38h0A2.06,2.06,0,0,1,2327.7,1031.32Zm9.9-6.8a2,2,0,0,1,.64-2.76h0a2,2,0,0,1,2.76.64h0a2,2,0,0,1-.64,2.76h0a2,2,0,0,1-1.06.3h0A2,2,0,0,1,2337.6,1024.52Zm43.66-.76a2,2,0,0,1-.82-2.7h0a2,2,0,0,1,2.7-.84h0a2,2,0,0,1,.84,2.7h0a2,2,0,0,1-1.78,1.08h0A2,2,0,0,1,2381.26,1023.76Zm-33.34-5.38a2,2,0,0,1,.82-2.7h0a2,2,0,0,1,2.7.82h0a2,2,0,0,1-.82,2.72h0a2,2,0,0,1-.94.22h0A2,2,0,0,1,2347.92,1018.38Zm10.76-5.3a2,2,0,0,1,1.1-2.62h0a2,2,0,0,1,2.6,1.1h0a2,2,0,0,1-1.1,2.6h0a2,2,0,0,1-.76.16h0A2,2,0,0,1,2358.68,1013.08Zm23.34-1.24-.06-.1h0s-.08-.06-.1-.1h0a2,2,0,0,1,.18-2.82h0a2,2,0,0,1,2.82.18h0a2.26,2.26,0,0,1,.2.24h0l.18.22h0a2,2,0,0,1-.42,2.8h0a2,2,0,0,1-1.18.4h0A2,2,0,0,1,2382,1011.84Zm-12-2.74a2,2,0,0,1,1.58-2.36h0a2,2,0,0,1,2.34,1.6h0a2,2,0,0,1-1.58,2.34h0a2.49,2.49,0,0,1-.38,0h0A2,2,0,0,1,2370,1009.1Z"/><path class="cls-1" d="M2340.06,1065.56a2,2,0,0,1-1.94-2.06h0a2,2,0,0,1,2.06-1.94h0a2,2,0,0,1,1.94,2.06h0a2,2,0,0,1-2,1.94h-.06Zm10.06-2a2,2,0,0,1,1.94-2.06h0a2,2,0,0,1,2.08,1.92h0a2,2,0,0,1-1.94,2.08h-.06A2,2,0,0,1,2350.12,1063.6Zm-22.16,1.26a2,2,0,0,1-1.82-2.16h0a2,2,0,0,1,2.16-1.82h0a2,2,0,0,1,1.84,2.16h0a2,2,0,0,1-2,1.84h0Zm34.14-1.92a2,2,0,0,1,1.78-2.2h0a2,2,0,0,1,2.2,1.76h0a2,2,0,0,1-1.78,2.22h-.2A2,2,0,0,1,2362.1,1062.94Zm-46.18.48h0a2,2,0,0,1-1.68-2.28h0a2,2,0,0,1,2.28-1.68h0a2,2,0,0,1,1.68,2.28h0a2,2,0,0,1-2,1.7h0A1.56,1.56,0,0,1,2315.92,1063.42Zm58.08-2.12a2,2,0,0,1,1.54-2.36h0a2,2,0,0,1,2.36,1.54h0a2,2,0,0,1-1.54,2.38h0a2.91,2.91,0,0,1-.42,0h0A2,2,0,0,1,2374,1061.3Zm-70-.2a2,2,0,0,1-1.46-2.4h0a2,2,0,0,1,2.4-1.48h0a2,2,0,0,1,1.48,2.4h0a2,2,0,0,1-1.94,1.54h0A2,2,0,0,1,2304,1061.1Zm81.64-2.86a2,2,0,0,1,1-2.64h0a2,2,0,0,1,2.64,1h0a2,2,0,0,1-1,2.64h0a2.19,2.19,0,0,1-.8.16h0A2,2,0,0,1,2385.6,1058.24Zm-93.36-.7a2,2,0,0,1-1.14-2.58h0a2,2,0,0,1,2.58-1.16h0a2,2,0,0,1,1.14,2.6h0a2,2,0,0,1-1.86,1.28h0A1.85,1.85,0,0,1,2292.24,1057.54Zm-11.06-6.22a2,2,0,0,1-.1-2.84h0a2,2,0,0,1,2.82-.1h0a2,2,0,0,1,.12,2.82h0a2,2,0,0,1-1.48.64h0A2.1,2.1,0,0,1,2281.18,1051.32Zm114.36.18a2,2,0,0,1-1.92-2.08h0a.25.25,0,0,0,0-.12h0c0-.06,0-.12,0-.18h0a2,2,0,0,1,1.88-2.12h0a2,2,0,0,1,2.12,1.86h0a2.23,2.23,0,0,1,0,.36h0a1.18,1.18,0,0,1,0,.38h0a2,2,0,0,1-2,1.92h0A.12.12,0,0,1,2395.54,1051.5Zm-8.78-9.08a2,2,0,0,1-.84-2.7h0a2,2,0,0,1,2.7-.84h0a2,2,0,0,1,.84,2.7h0a2,2,0,0,1-1.78,1.08h0A2,2,0,0,1,2386.76,1042.42Zm-105.7-1.44a2,2,0,0,1,.26-2.82h0a2,2,0,0,1,2.82.26h0a2,2,0,0,1-.26,2.82h0a2,2,0,0,1-1.28.46h0A2,2,0,0,1,2281.06,1041Zm94.9-2.76a2,2,0,0,1-1.36-2.48h0a2,2,0,0,1,2.48-1.34h0a2,2,0,0,1,1.36,2.48h0a2,2,0,0,1-1.92,1.42h0A1.82,1.82,0,0,1,2376,1038.22Zm-84.48-3a2,2,0,0,1,1.34-2.48h0a2,2,0,0,1,2.48,1.34h0a2,2,0,0,1-1.34,2.48h0a1.91,1.91,0,0,1-.58.08h0A2,2,0,0,1,2291.48,1035.18Zm73,.3a2,2,0,0,1-1.6-2.34h0a2,2,0,0,1,2.34-1.6h0a2,2,0,0,1,1.6,2.34h0a2,2,0,0,1-2,1.64h0A2.15,2.15,0,0,1,2364.48,1035.48Zm-61.34-3.1a2,2,0,0,1,1.66-2.3h0a2,2,0,0,1,2.28,1.68h0a2,2,0,0,1-1.66,2.28h0a1.86,1.86,0,0,1-.32,0h0A2,2,0,0,1,2303.14,1032.38Zm49.62,1.3a2,2,0,0,1-1.76-2.22h0a2,2,0,0,1,2.22-1.74h0a2,2,0,0,1,1.76,2.22h0a2,2,0,0,1-2,1.76h0A.83.83,0,0,1,2352.76,1033.68ZM2315,1030.9a2,2,0,0,1,1.86-2.14h0a2,2,0,0,1,2.14,1.86h0a2,2,0,0,1-1.86,2.14H2317A2,2,0,0,1,2315,1030.9Zm25.88,1.76h0a2,2,0,0,1-1.9-2.1h0a2,2,0,0,1,2.12-1.88h0a2,2,0,0,1,1.88,2.1h0a2,2,0,0,1-2,1.88h-.12Zm-13.88-2.3a2,2,0,0,1,2-2h0a2,2,0,0,1,2,2h0a2,2,0,0,1-2,2h0A2,2,0,0,1,2327,1030.36Z"/><path class="cls-1" d="M2489.55,65s-19.75-2-25.25-2-22.25,2-22.25,2a8,8,0,0,0-8,8v28.46a8,8,0,0,0,8,8,145,145,0,0,0,23.75,2,145,145,0,0,0,23.75-2,8,8,0,0,0,8-8V73A8,8,0,0,0,2489.55,65ZM2443,99a2.67,2.67,0,1,1,2.67-2.67A2.67,2.67,0,0,1,2443,99Zm17.67-25h-13c-2.3,0-3.17,3.16-3.33,3.87v8.46a2,2,0,0,1-4,0V77.67a2,2,0,0,1,0-.35c.48-2.72,2.56-7.32,7.3-7.32h13a2,2,0,0,1,0,4Z"/><path class="cls-1" d="M2454.3,180a84,84,0,1,1,84-84A84.1,84.1,0,0,1,2454.3,180Zm0-162a78,78,0,1,0,78,78A78.09,78.09,0,0,0,2454.3,18Z"/><path class="cls-1" d="M2386.1,104.33h22.41a3.52,3.52,0,0,1,.8.1v-2.72l8.11-8.11a3.57,3.57,0,1,0-5-5l-3.07,3.07V84.33s1-7.17-11.33-7.17-13,7.17-13,7.17v20.2A3.51,3.51,0,0,1,2386.1,104.33Z"/><path class="cls-1" d="M2504.3,127H2416l-5.43-6.13-1.21-5.2v-4.31a3.52,3.52,0,0,1-.81.1H2386.1a3.51,3.51,0,0,1-1.13-.2V113s9,26,11.67,30.33,15,10.67,15,10.67v10.86s13.86,10.81,45.66,12.14c47.33,0,54.33-29.33,54.33-29.33v-16C2511.64,128.33,2509.1,127,2504.3,127Zm-40.83,3.83a2.83,2.83,0,1,1-2.83,2.83A2.83,2.83,0,0,1,2463.47,130.83Zm-9.17,0a2.83,2.83,0,1,1-2.83,2.83A2.83,2.83,0,0,1,2454.3,130.83Zm43.21,27.83a2,2,0,1,1-4,0V142.33H2438.1v16.33a2,2,0,1,1-4,0V140.33a2,2,0,0,1,2-2h59.42a2,2,0,0,1,2,2Z"/><path class="cls-1" d="M2408.51,113.46H2386.1a5.57,5.57,0,0,1,0-11.13h22.41a5.57,5.57,0,1,1,0,11.13Zm-22.41-7.13a1.57,1.57,0,0,0,0,3.13h22.41a1.57,1.57,0,1,0,0-3.13Z"/><path class="cls-1" d="M2441.91,119.5h9.42c-14.8-5.25-25.33-18.27-25.33-33.5,0-19.85,17.85-36,39.8-36s39.8,16.15,39.8,36c0,15.23-10.53,28.25-25.33,33.5h9.42c12-7.15,19.91-19.49,19.91-33.5,0-22.06-19.65-40-43.8-40S2422,63.94,2422,86C2422,100,2429.94,112.35,2441.91,119.5Z"/><path class="cls-1" d="M2495.05,129h-58.5a5.75,5.75,0,0,1,0-11.5h58.5a5.75,5.75,0,0,1,0,11.5Zm-58.5-7.5a1.75,1.75,0,0,0,0,3.5h58.5a1.75,1.75,0,0,0,0-3.5Z"/><path class="cls-1" d="M457.45,826.5c-7.79-.56-21.21-2.75-24.09-6.27-4.11-5-5.57-12.53-5.58-12.6l-.31-1.63h-2.52a3.14,3.14,0,0,1,.86,2,3.59,3.59,0,0,1-1.43,2.6,34.12,34.12,0,0,0,5.88,12.17c3.65,4.46,15.51,6.47,22.28,7.28-8.76,7.25-33.73,25-64.42,21.74C358.7,848.61,343.42,830.91,338,823a27.7,27.7,0,0,0,13.54-1.1,14.31,14.31,0,0,0,9-11.07,3.8,3.8,0,0,1-1.68-2.8,3.13,3.13,0,0,1,.86-2H356.8v2c0,.08-.08,7.64-6.7,10.13-7.22,2.71-15.58,0-15.67,0l-4.53-1.49,2.1,4.27c.61,1.25,15.45,30.54,55.68,34.88a76.16,76.16,0,0,0,8.19.44c35.87,0,61.68-25.13,62.84-26.28l3.13-3.1Z"/><path class="cls-1" d="M392.3,819c-17.1,0-35.5-3.44-35.5-11s18.4-11,35.5-11,35.5,3.44,35.5,11S409.4,819,392.3,819Zm0-18c-20.38,0-31.5,4.62-31.5,7s11.12,7,31.5,7,31.5-4.62,31.5-7S412.69,801,392.3,801Z"/><path class="cls-1" d="M392.3,819a2,2,0,0,1-2-2V715.5a2,2,0,0,1,4,0V817A2,2,0,0,1,392.3,819Z"/><path class="cls-1" d="M437.5,748H396.11a3.92,3.92,0,0,1-3.81-4V723a3.92,3.92,0,0,1,3.81-4H437.5c2.09,0,2.77,3.11,1.81,4L428,733.5s10.7,9.5,11.32,10.5S439.59,748,437.5,748Z"/><polygon class="cls-1" points="350.61 62.5 361.11 65.07 350.61 67.63 348.04 78.14 345.47 67.63 334.97 65.07 345.47 62.5 348.04 52 350.61 62.5"/><path class="cls-1" d="M348,79.14a1,1,0,0,1-1-.76l-2.42-9.91L334.73,66a1,1,0,0,1,0-1.94l9.91-2.42,2.42-9.91a1,1,0,0,1,1.94,0l2.42,9.91,9.91,2.42a1,1,0,0,1,0,1.94l-9.91,2.42L349,78.37A1,1,0,0,1,348,79.14Zm-8.86-14.07,6.53,1.6a1,1,0,0,1,.73.73L348,73.92l1.59-6.53a1,1,0,0,1,.73-.73l6.53-1.6-6.53-1.59a1,1,0,0,1-.73-.73L348,56.21l-1.59,6.53a1,1,0,0,1-.73.73Z"/><circle class="cls-1" cx="330.97" cy="113.33" r="4"/><circle class="cls-1" cx="380.97" cy="48" r="2.67"/><circle class="cls-1" cx="351.6" cy="147.57" r="3.57"/><path class="cls-1" d="M446,141.15l-21.54-19a33.56,33.56,0,0,1-3.08,5.29L442,145.65a1,1,0,0,1,.09,1.41l-8.07,9.15a1,1,0,0,1-.69.33,1,1,0,0,1-.72-.24l-21.05-18.58c-1.86,1.63-3.44,2.89-4.73,3.83l21.81,19.25a7,7,0,0,0,9.88-.62l8.07-9.15A7,7,0,0,0,446,141.15Z"/><path class="cls-1" d="M429.15,111a14.15,14.15,0,0,0-3-3.55L392.4,77.67a7,7,0,0,0-9.88.62l-2.8,3.17c4.37-2.58,8-3.44,9.53-1.89.79.79.94,2.13.57,3.83L422.2,112a8.42,8.42,0,0,1,1.67,1.89l-.25.29-.07,1c0,.07-.71,7.4-8.69,15.39-8.41,8.4-13.2,10.85-13.23,10.86l-.54.26-.08.09a8.06,8.06,0,0,1-3.73-1.55L363.5,110.41a.82.82,0,0,1-.16-.23c-1.88.48-3.35.36-4.2-.49s-1-2.4-.45-4.35a7,7,0,0,0,.84,9.56l33.76,29.81a13.73,13.73,0,0,0,7.85,3,5.32,5.32,0,0,0,3.55-1.18c1.51-.84,6.57-3.95,14.4-11.78,8.08-8.08,9.92-15.8,10.33-18.35A5.37,5.37,0,0,0,429.15,111Z"/><path class="cls-1" d="M361.36,112.46a4.92,4.92,0,0,1-3.64-1.36c-1.39-1.39-2.42-4.29.59-10.19a52.88,52.88,0,0,1,9.59-12.58c7.93-7.94,18.44-14.51,22.77-10.18h0c1.39,1.39,2.42,4.29-.59,10.19a52.89,52.89,0,0,1-9.59,12.58,52.88,52.88,0,0,1-12.58,9.59A14.85,14.85,0,0,1,361.36,112.46ZM387,80.74c-2.33,0-8.6,2.74-16.27,10.42a48.87,48.87,0,0,0-8.85,11.57c-1.75,3.43-1.65,5.21-1.33,5.54s2.11.43,5.54-1.33a48.84,48.84,0,0,0,11.57-8.85,48.85,48.85,0,0,0,8.85-11.58c1.75-3.43,1.65-5.21,1.33-5.54h0A1.19,1.19,0,0,0,387,80.74Z"/><path class="cls-1" d="M371.09,106.91H371a2,2,0,0,1-1.88-2.12l.55-9.25a2,2,0,1,1,4,.24l-.55,9.25A2,2,0,0,1,371.09,106.91Z"/><path class="cls-1" d="M378,100.69h-.06A2,2,0,0,1,376,98.63l.33-11.09a2,2,0,0,1,2.06-1.94,2,2,0,0,1,1.94,2.06L380,98.75A2,2,0,0,1,378,100.69Z"/><path class="cls-1" d="M2256.08,1105.52a4,4,0,0,0-4.56-1.16,349.24,349.24,0,0,1-194.55,16.9v6.11a355.19,355.19,0,0,0,197-17.5c2.25-.88,2.64-2.44,2.51-3.64.89,1.7.83.77-.06-.36C2256.12,1104.64,2255.41,1104,2256.08,1105.52Z"/><path class="cls-1" d="M2125.3,424a355.35,355.35,0,0,0-68.33,6.63v6.11A349.3,349.3,0,0,1,2125.3,430c192.44,0,349,156.56,349,349a347,347,0,0,1-59.6,194.83c-1.2,2.1-.6,3.71.16,4.4s3.43,1.77,5.19-1.61A352.9,352.9,0,0,0,2480.3,779C2480.3,583.25,2321.05,424,2125.3,424Z"/><path class="cls-1" d="M2569.3,995.94h-11.78a6.13,6.13,0,0,1,0-12.26h11.78a6.13,6.13,0,0,1,0,12.26Zm-11.78-8.26a2.13,2.13,0,0,0,0,4.26h11.78a2.13,2.13,0,0,0,0-4.26Z"/><path class="cls-2" d="M2522.61,973a8,8,0,0,0,2.61,7.84c31.38,13.42,69.36,5.09,75.72,0,3.66-.74,3.48-7.84,3.48-7.84Z"/><path class="cls-1" d="M2509,938.47a4.79,4.79,0,0,1-4.09-1.78,5.76,5.76,0,0,1-.64-4.81c.47-2.33,6.94-29,57.07-29h1c51.59.34,59.27,24.51,60,27.13.34.84,1.24,3.51,0,5.47a4,4,0,0,1-3.46,1.78c-8.61.24-31.93.41-54.48.58-22.78.17-46.33.35-55.08.59Zm-.88-5.52a2.12,2.12,0,0,0,0,1.34c0,.05.29.19,1,.18,8.78-.24,32.36-.42,55.16-.59,22.53-.17,45.83-.35,54.4-.58a.93.93,0,0,0,.32,0,9.21,9.21,0,0,0-.48-1.79,2.08,2.08,0,0,1-.12-.36c-.05-.23-6.21-23.86-56.12-24.2h-.91c-48,0-53.13,25.54-53.17,25.8A1.83,1.83,0,0,1,2508.08,933Zm-1.91-.6h0Z"/><path class="cls-2" d="M2467.17,953c8.26-13.21,36.46-16.54,36.46-16.54h118.18s34.9,5.49,36,16.54C2637.36,944.6,2487.91,945,2467.17,953Z"/><path class="cls-1" d="M2659.61,952.37a2,2,0,0,0-.35-.93c-6.55-9.4-77.14-9.9-91.23-9.9h-.33c-38.65,0-87.77,2.44-99.52,9.32a2,2,0,0,0-1,1.41c-.64,4,4.44,9.3,8.35,11.62a2,2,0,0,0,1.78.13,10.17,10.17,0,0,1,1.48-.44,24.45,24.45,0,0,1-4.63-3.59,13.07,13.07,0,0,1,1.72-.71,15.33,15.33,0,0,1-4.6-5.53c10.69-4.86,49.57-8.21,96.37-8.21h.35c51.74,0,83.16,4,87.6,7.82-.2,2-2.44,4.1-4.65,5.66a4,4,0,0,1,1.63,1,17.88,17.88,0,0,1-5.65,3.75,5.79,5.79,0,0,1,.77.46,2,2,0,0,0,2.07.19C2650.88,963.86,2660.32,959,2659.61,952.37Z"/><path class="cls-1" d="M2578.49,976.49c-22.23,0-51.3-.47-54.74-.58-1.55,0-38-1.37-51-14.53a2,2,0,0,1,.5-3.17c9.73-5.1,56.93-6.7,94.42-6.56,13.56.06,81.45.67,86.5,7.1a2,2,0,0,1-.07,2.56c-7.48,8.5-43.39,14.23-50.42,14.6C2601.25,976.34,2590.94,976.49,2578.49,976.49Zm-100.42-15.81c13.69,10.08,45.46,11.22,45.8,11.23,9.93.32,75,1.07,79,.07a2.54,2.54,0,0,1,.44-.07c8-.35,36.38-5.56,45.67-11.55-8.25-2.31-38.78-4.57-82.49-4.72C2523.75,955.5,2489.65,957.49,2478.07,960.68Z"/><path class="cls-2" d="M2604.41,960c3.37,0,6.1,1.66,6.1,3.7s-2.73,3.7-6.1,3.7-6.1-1.66-6.1-3.7S2601,960,2604.41,960Z"/><path class="cls-2" d="M2577,958.67c3.37,0,6.1,1.66,6.1,3.7s-2.73,3.7-6.1,3.7-6.1-1.66-6.1-3.7S2573.64,958.67,2577,958.67Z"/><path class="cls-2" d="M2547.4,959.1c3.37,0,6.1,1.66,6.1,3.7s-2.73,3.7-6.1,3.7-6.1-1.66-6.1-3.7S2544,959.1,2547.4,959.1Z"/><path class="cls-2" d="M2517.82,960.84c3.36,0,6.08,1.66,6.08,3.7s-2.72,3.7-6.08,3.7-6.08-1.66-6.08-3.7S2514.46,960.84,2517.82,960.84Z"/><path class="cls-1" d="M2611.39,932.28a2,2,0,0,1-1.82-1.16h0c-.25-.53-6.32-13-27.18-13.78a2,2,0,0,1,.16-4c23.43.92,30.37,15.48,30.65,16.1a2,2,0,0,1-1.82,2.83Z"/><path class="cls-1" d="M173.19,470.52H161.41a6.13,6.13,0,0,1,0-12.26h11.78a6.13,6.13,0,0,1,0,12.26Zm-11.78-8.26a2.13,2.13,0,0,0,0,4.26h11.78a2.13,2.13,0,0,0,0-4.26Z"/><path class="cls-2" d="M126.5,447.62a8,8,0,0,0,2.61,7.84c31.38,13.42,69.36,5.09,75.72,0,3.66-.74,3.48-7.84,3.48-7.84Z"/><path class="cls-1" d="M112.85,413.05a4.79,4.79,0,0,1-4.09-1.78,5.76,5.76,0,0,1-.64-4.81c.47-2.35,7-29.28,58-29,51.59.34,59.27,24.52,60,27.13.34.84,1.24,3.51,0,5.47a4,4,0,0,1-3.46,1.78c-8.62.24-32,.42-54.57.59s-46.25.35-55,.59Zm-.87-5.52a2.12,2.12,0,0,0,0,1.34c0,.05.32.2,1,.18,8.77-.24,32.3-.42,55.06-.59,22.57-.17,45.91-.35,54.49-.58a.94.94,0,0,0,.32,0,8.51,8.51,0,0,0-.48-1.78,2,2,0,0,1-.12-.36c-.05-.23-6.21-23.86-56.12-24.2-48.57-.3-53.89,24.74-54.09,25.81A2.29,2.29,0,0,1,112,407.53Zm-1.91-.6h0Z"/><path class="cls-2" d="M72.88,427.6C81.06,414.39,109,411.05,109,411.05H226s34.57,5.49,35.68,16.54C241.46,419.18,93.42,419.57,72.88,427.6Z"/><path class="cls-1" d="M263.5,426.95a2,2,0,0,0-.35-.93c-6.55-9.4-77.14-9.9-91.23-9.9h-.33c-38.65,0-87.77,2.44-99.52,9.32a2,2,0,0,0-1,1.41c-.64,4,4.44,9.3,8.35,11.62a2,2,0,0,0,1.78.13,10.16,10.16,0,0,1,1.48-.44,24.46,24.46,0,0,1-4.63-3.59,13.09,13.09,0,0,1,1.72-.71,15.33,15.33,0,0,1-4.6-5.53c10.69-4.86,49.57-8.2,96.36-8.2h.35c51.74,0,83.16,4,87.6,7.81-.2,2-2.44,4.1-4.65,5.66a4,4,0,0,1,1.63,1,17.88,17.88,0,0,1-5.65,3.75,5.81,5.81,0,0,1,.77.46,2,2,0,0,0,2.07.19C254.77,438.44,264.22,433.59,263.5,426.95Z"/><path class="cls-1" d="M182.38,451.07c-22.23,0-51.3-.47-54.74-.58-1.55,0-38-1.37-51-14.53a2,2,0,0,1,.5-3.17c9.73-5.1,56.93-6.7,94.42-6.56,13.56.06,81.45.67,86.5,7.1a2,2,0,0,1-.07,2.56c-7.47,8.5-43.39,14.23-50.42,14.6C205.15,450.93,194.84,451.07,182.38,451.07ZM82,435.26c13.69,10.08,45.46,11.22,45.8,11.24,9.93.32,75,1.07,79,.07a2.54,2.54,0,0,1,.44-.07c8-.35,36.38-5.57,45.67-11.55-8.25-2.31-38.78-4.57-82.49-4.72C127.65,430.08,93.55,432.07,82,435.26Z"/><path class="cls-2" d="M208.31,434.56c3.37,0,6.1,1.66,6.1,3.7s-2.73,3.7-6.1,3.7-6.1-1.66-6.1-3.7S204.94,434.56,208.31,434.56Z"/><path class="cls-2" d="M180.9,433.26c3.37,0,6.1,1.66,6.1,3.7s-2.73,3.7-6.1,3.7-6.1-1.66-6.1-3.7S177.53,433.26,180.9,433.26Z"/><path class="cls-2" d="M151.3,433.68c3.37,0,6.1,1.66,6.1,3.7s-2.73,3.7-6.1,3.7-6.1-1.66-6.1-3.7S147.94,433.68,151.3,433.68Z"/><path class="cls-2" d="M121.71,435.42c3.36,0,6.08,1.66,6.08,3.7s-2.72,3.7-6.08,3.7-6.08-1.66-6.08-3.7S118.35,435.42,121.71,435.42Z"/><path class="cls-1" d="M215.29,406.86a2,2,0,0,1-1.82-1.16c-.26-.55-6.34-13-27.17-13.78a2,2,0,0,1,.16-4c23.44.92,30.37,15.48,30.65,16.1a2,2,0,0,1-1.82,2.83Z"/><ellipse class="cls-1" cx="392.94" cy="813.03" rx="25.08" ry="5.4"/></svg>